Coordinates
version=1
nRows=23
nColumns=38
inDegrees=no

Units are S.I. units (second, meters, Newtons, ...)
If the header above contains a line with 'inDegrees', this indicates whether rotational values are in degrees (yes) or radians (no).

endheader
time	pelvis_tilt	pelvis_list	pelvis_rotation	pelvis_tx	pelvis_ty	pelvis_tz	hip_flexion_r	hip_adduction_r	hip_rotation_r	knee_angle_r	ankle_angle_r	subtalar_angle_r	mtp_angle_r	hip_flexion_l	hip_adduction_l	hip_rotation_l	knee_angle_l	ankle_angle_l	subtalar_angle_l	mtp_angle_l	lumbar_extension	lumbar_bending	lumbar_rotation	arm_flex_r	arm_add_r	arm_rot_r	elbow_flex_r	pro_sup_r	wrist_flex_r	wrist_dev_r	arm_flex_l	arm_add_l	arm_rot_l	elbow_flex_l	pro_sup_l	wrist_flex_l	wrist_dev_l
0	0.0156633	1.45025	-1.48764	0.439714	1.85602	0.928796	-0.387745	0.0190781	-0.0716403	0.381767	-0.167571	0	0	0.308127	-0.0029752	-0.0662271	0.312223	-0.296817	0	0	-0.372549	0.0199555	-0.0399072	-0.0149692	-0.470757	0.733968	0.713473	0.82089	0	0	-0.171984	-0.166119	-0.241259	0.573365	1.5708	0	0
0.01	0.00510521	1.42426	-1.47654	0.443967	1.84778	0.924401	-0.342403	-0.0230379	-0.203649	0.607449	-0.123836	0	0	0.277581	-0.000713109	-0.00985717	0.376312	-0.198073	0	0	-0.380018	0.0368675	0.459824	-0.53695	-0.289562	-0.119918	0.889524	1.06596	0	0	0.280489	-0.0660159	0.352172	0.100972	1.5708	0	0
0.02	0.0303562	1.45969	-1.4915	0.44733	1.83425	0.9279	-0.383883	0.0108025	-0.061658	0.416356	-0.195181	0	0	0.325948	0.0128311	-0.092649	0.399395	-0.251074	0	0	-0.350972	0.0249944	-0.0501778	0.0021075	-0.507603	0.857268	0.731946	0.679282	0	0	-0.183137	-0.160041	-0.247204	0.570378	1.5708	0	0
0.03	0.0772242	1.46576	-1.53017	0.451202	1.82337	0.928307	-0.378636	0.00299085	-0.0642817	0.435231	-0.216277	0	0	0.327153	0.024522	-0.0870531	0.410005	-0.258092	0	0	-0.345735	0.0209283	-0.0543943	-0.0136111	-0.502213	0.829572	0.729429	0.702603	0	0	-0.186052	-0.160912	-0.243127	0.573499	1.5708	0	0
0.04	0.107491	1.46771	-1.55145	0.45493	1.81219	0.929152	-0.377746	-0.00180129	-0.0594785	0.453354	-0.240044	0	0	0.322447	0.0326405	-0.0829003	0.418895	-0.264976	0	0	-0.344451	0.0191651	-0.0569794	-0.0343653	-0.495999	0.789166	0.729709	0.729803	0	0	-0.189235	-0.16222	-0.238194	0.578768	1.5708	0	0
0.05	0.129127	1.46962	-1.56542	0.458504	1.80099	0.930079	-0.373832	-0.00658146	-0.0552532	0.476487	-0.265734	0	0	0.316015	0.0389716	-0.0793444	0.424403	-0.271975	0	0	-0.33973	0.0173949	-0.0366327	-0.0900257	-0.478452	0.673475	0.733286	0.81507	0	0	-0.181819	-0.189957	-0.131486	0.579073	1.5077	0	0
0.06	0.244737	1.48349	-1.67527	0.46184	1.78951	0.928535	-0.318291	-0.0570165	-0.153524	0.60258	-0.284044	0	0	0.325037	0.0535102	-0.0753512	0.434923	-0.269881	0	0	-0.324503	0.00682257	-0.0672563	-0.059287	-0.493344	0.767279	0.735221	0.740172	0	0	-0.213541	-0.167445	-0.230359	0.604963	1.5708	0	0
0.07	0.278881	1.48691	-1.70289	0.465567	1.77832	0.929538	-0.305873	-0.065493	-0.155903	0.634546	-0.308777	0	0	0.314242	0.0622548	-0.0630066	0.426562	-0.271135	0	0	-0.319606	0.00534644	-0.0694831	-0.0692769	-0.492287	0.759052	0.734289	0.742583	0	0	-0.218686	-0.1679	-0.226879	0.609023	1.5708	0	0
0.08	0.179215	1.47886	-1.59714	0.469493	1.76749	0.933099	-0.334791	-0.0260046	-0.0573604	0.580717	-0.357058	0	0	0.28999	0.0578375	-0.0556052	0.420546	-0.274213	0	0	-0.329635	0.0158835	-0.0677519	-0.0693937	-0.494424	0.767861	0.727528	0.729916	0	0	-0.214025	-0.165657	-0.221772	0.602258	1.5708	0	0
0.09	0.322774	1.48818	-1.73723	0.472883	1.756	0.931856	-0.277116	-0.0849595	-0.166037	0.709679	-0.397327	0	0	0.292614	0.0730646	-0.0550244	0.431485	-0.262434	0	0	-0.314341	0.00368255	-0.0727974	-0.0812976	-0.498619	0.767926	0.737663	0.721456	0	0	-0.231925	-0.167969	-0.222536	0.622706	1.5708	0	0
0.1	0.350964	1.4874	-1.76229	0.476332	1.74506	0.93306	-0.25857	-0.0970488	-0.171303	0.754857	-0.440943	0	0	0.279248	0.0785373	-0.0524889	0.433648	-0.252061	0	0	-0.313263	0.00168648	-0.0749104	-0.0871612	-0.501372	0.768717	0.740604	0.717443	0	0	-0.239461	-0.168077	-0.221344	0.631192	1.5708	0	0
0.11	0.239613	1.47943	-1.65047	0.479621	1.73477	0.936741	-0.271337	-0.0552016	-0.0663148	0.72762	-0.494244	0	0	0.252099	0.0710261	-0.0513902	0.426064	-0.246136	0	0	-0.3275	0.0134148	-0.079356	-0.0798514	-0.505201	0.777251	0.738613	0.717131	0	0	-0.234652	-0.166057	-0.215111	0.617993	1.5708	0	0
0.12	0.403597	1.48194	-1.81299	0.482746	1.72373	0.935526	-0.217928	-0.122466	-0.174364	0.845853	-0.54794	0	0	0.245636	0.0876951	-0.0554475	0.432509	-0.232931	0	0	-0.315867	-0.00398755	-0.0757933	-0.099885	-0.509093	0.76574	0.75251	0.711594	0	0	-0.253822	-0.167405	-0.22268	0.649675	1.5708	0	0
0.13	0.435856	1.47907	-1.84365	0.485935	1.71353	0.936653	-0.194703	-0.135467	-0.175495	0.894058	-0.584503	0	0	0.229037	0.0934297	-0.0531101	0.43113	-0.224232	0	0	-0.317679	-0.00742927	-0.0789366	-0.104856	-0.511768	0.761849	0.75788	0.711187	0	0	-0.261318	-0.167315	-0.223701	0.659802	1.5708	0	0
0.14	0.457601	1.47469	-1.86405	0.488991	1.70362	0.937965	-0.172987	-0.146736	-0.173117	0.940351	-0.612807	0	0	0.210364	0.0985169	-0.049309	0.42807	-0.217739	0	0	-0.321633	-0.0103978	-0.0822724	-0.10794	-0.514668	0.7604	0.763331	0.712796	0	0	-0.267053	-0.167477	-0.223643	0.667727	1.5708	0	0
0.15	0.482382	1.46928	-1.88632	0.491944	1.69405	0.939465	-0.150879	-0.158759	-0.17327	0.986508	-0.65767	0	0	0.18923	0.105081	-0.0399311	0.419684	-0.209365	0	0	-0.325887	-0.0119441	-0.0347216	-0.224794	-0.454299	0.462912	0.777952	0.976476	0	0	-0.22985	-0.25694	0.0722764	0.659388	1.3488	0	0
0.16	0.483029	1.46234	-1.88402	0.494859	1.68482	0.941033	-0.1309	-0.168122	-0.172385	1.03071	-0.681798	0	0	0.16635	0.109144	-0.0317705	0.411957	-0.205344	0	0	-0.338055	-0.0158365	-0.0889444	-0.129876	-0.505097	0.696533	0.771501	0.784389	0	0	-0.274221	-0.168785	-0.223579	0.684921	1.5708	0	0
0.17	0.474011	1.45602	-1.87184	0.497605	1.6758	0.942699	-0.109844	-0.175465	-0.171896	1.07333	-0.69752	0	0	0.1433	0.11143	-0.024329	0.402502	-0.203414	0	0	-0.346196	-0.0158203	-0.0933266	-0.130801	-0.50535	0.692104	0.774003	0.790452	0	0	-0.275667	-0.168789	-0.223837	0.689385	1.5708	0	0
0.18	0.456092	1.44992	-1.84957	0.500385	1.66709	0.944532	-0.0887489	-0.181446	-0.174397	1.11462	-0.697375	0	0	0.118771	0.112777	-0.0147961	0.38888	-0.205813	0	0	-0.354778	-0.0136748	-0.0977903	-0.131088	-0.50511	0.687416	0.775085	0.797459	0	0	-0.273881	-0.168066	-0.223991	0.689954	1.5708	0	0
0.19	0.318928	1.46809	-1.70032	0.504326	1.65877	0.942243	-0.0429718	-0.167407	-0.182265	1.1655	-0.669568	0	0	0.0998345	0.0934206	-0.0379099	0.326107	-0.213797	0	0	-0.339115	0.0120925	-0.107449	-0.139992	-0.51586	0.675292	0.791976	0.804907	0	0	-0.281137	-0.162247	-0.226413	0.697891	1.5708	0	0
0.2	0.274318	1.46459	-1.65062	0.507078	1.65031	0.943963	-0.0196377	-0.165986	-0.180436	1.20068	-0.642453	0	0	0.0789212	0.0898253	-0.0338797	0.314807	-0.213852	0	0	-0.347585	0.0199385	-0.117917	-0.135125	-0.515133	0.669954	0.791676	0.813492	0	0	-0.278238	-0.162576	-0.221496	0.691898	1.5708	0	0
0.21	0.228599	1.46048	-1.59982	0.509724	1.642	0.94569	0.00298534	-0.163247	-0.178286	1.23166	-0.619086	0	0	0.0568497	0.0848972	-0.0320358	0.301383	-0.212693	0	0	-0.350604	0.0258975	-0.113127	-0.139296	-0.513993	0.665266	0.787857	0.810773	0	0	-0.272546	-0.160817	-0.221801	0.691657	1.5708	0	0
0.22	0.1848	1.45664	-1.55161	0.512292	1.63376	0.947453	0.0265872	-0.160299	-0.176276	1.26049	-0.582943	0	0	0.0345722	0.0793588	-0.0312122	0.285448	-0.214368	0	0	-0.355543	0.0329864	-0.115996	-0.133473	-0.515144	0.67433	0.783659	0.800615	0	0	-0.268488	-0.159216	-0.221147	0.688216	1.5708	0	0
